<svg width="1269" height="1269" xmlns="http://www.w3.org/2000/svg" xmlns:xlink="http://www.w3.org/1999/xlink" xml:space="preserve" overflow="hidden"><g transform="translate(-1149 -420)"><path d="M1200.55 1065.03C1200.55 1383.22 1458.5 1641.16 1776.68 1641.16 2094.87 1641.16 2352.81 1383.22 2352.81 1065.03 2352.81 746.846 2094.87 488.903 1776.68 488.903 1458.5 488.903 1200.55 746.846 1200.55 1065.03Z" fill="#57AAC3"/><path d="M1924.28 1396.04C1944.11 1412.27 1968.4 1411.9 1985.13 1395.05 2001.98 1378.07 2002.35 1353.16 1986.12 1334.32 1980.29 1329.74 1974.35 1325.03 1968.52 1320.44 1977.94 1320.32 1987.48 1320.44 1996.9 1319.82 2011.77 1318.83 2020.32 1309.17 2019.45 1295.04 2018.59 1282.28 2009.04 1275.21 1992.19 1275.21L1637.27 1275.21C1637.64 1271.49 1637.76 1269.26 1638.26 1267.03L1660.57 1165.54C1706.67 1165.41 1752.89 1165.54 1798.99 1165.29 1840.38 1165.04 1881.9 1164.55 1923.29 1164.3 1954.89 1164.17 1986.37 1164.55 2017.97 1164.17 2033.21 1163.93 2038.04 1159.59 2042.5 1145.21L2065.93 1069.37C2086.87 1001.09 2107.81 932.805 2128.76 864.398 2133.09 850.146 2128.01 838.373 2115.5 834.78 2110.29 833.292 2104.59 833.54 2099.01 833.54 1921.43 833.54 1743.84 833.416 1566.26 833.664 1557.09 833.664 1553.12 831.062 1550.89 822.139 1546.06 803.055 1540.23 784.094 1534.41 765.257 1529.58 749.395 1523.63 745.429 1506.65 745.553 1504.67 743.075 1502.93 740.472 1500.83 738.117 1485.83 720.768 1460.67 717.794 1441.96 731.178 1423.12 744.686 1417.8 768.975 1429.44 789.051 1443.45 813.464 1470.96 817.802 1497.85 799.956 1531.81 914.836 1565.51 1029.71 1599.97 1144.47 1602.2 1151.78 1610.13 1157.48 1615.33 1163.8 1603.44 1205.57 1591.66 1247.33 1579.77 1288.97 1574.93 1305.7 1584.1 1319.21 1601.58 1319.95 1611 1320.32 1620.54 1320.2 1630.08 1320.2 1625.87 1322.92 1621.41 1325.53 1617.44 1328.5 1594.39 1345.48 1593.4 1377.57 1615.46 1396.41 1634.42 1412.52 1658.09 1412.03 1675.19 1395.3 1692.79 1378.07 1693.53 1355.02 1677.17 1334.57 1670.85 1329.86 1664.41 1325.03 1658.09 1320.32 1677.05 1320.2 1696.01 1319.95 1714.97 1320.07 1789.7 1320.2 1864.42 1320.32 1939.15 1320.57 1936.55 1322.18 1933.82 1323.79 1931.22 1325.4 1902.34 1342.63 1904.2 1381.54 1924.28 1396.04Z" fill="#FFFFFF"/><path d="M1615.33 1164.05C1630.33 1164.67 1645.32 1165.29 1660.44 1165.91L1638.14 1267.4C1637.64 1269.64 1637.64 1271.99 1637.14 1275.58L1992.07 1275.58C2009.04 1275.58 2018.59 1282.65 2019.33 1295.41 2020.2 1309.54 2011.65 1319.33 1996.78 1320.2 1987.36 1320.82 1977.82 1320.57 1968.4 1320.82L1939.15 1320.82C1864.42 1320.69 1789.7 1320.44 1714.97 1320.32 1696.01 1320.32 1677.05 1320.57 1658.09 1320.57 1648.79 1320.57 1639.5 1320.57 1630.2 1320.44 1620.66 1320.32 1611.24 1320.57 1601.7 1320.2 1584.23 1319.45 1575.06 1305.95 1579.89 1289.22 1591.66 1247.58 1603.44 1205.81 1615.33 1164.05Z" fill="#DAE0E1"/><path d="M1506.53 745.925C1515.7 766.001 1512.35 783.97 1497.73 800.204 1470.84 818.05 1443.45 813.712 1429.32 789.299 1417.8 769.223 1423 744.933 1441.84 731.426 1460.43 718.165 1485.58 721.14 1500.7 738.365 1502.81 740.844 1504.67 743.446 1506.53 745.925Z" fill="#C03F37"/><path d="M1629.96 1320.57C1639.25 1320.57 1648.54 1320.57 1657.84 1320.69 1664.16 1325.4 1670.6 1330.23 1676.92 1334.94 1656.35 1355.52 1635.78 1376.21 1615.21 1396.78 1593.15 1377.95 1594.14 1345.85 1617.19 1328.87 1621.41 1325.9 1625.74 1323.29 1629.96 1320.57ZM1939.03 1320.69 1968.27 1320.69C1974.1 1325.28 1980.05 1329.99 1985.87 1334.57 1965.3 1355.14 1944.6 1375.72 1924.03 1396.29 1904.08 1381.79 1902.1 1342.88 1930.97 1325.4 1933.82 1323.91 1936.42 1322.3 1939.03 1320.69Z" fill="#595C5F"/><path d="M1924.16 1396.41C1944.73 1375.84 1965.42 1355.27 1985.99 1334.7 2002.23 1353.53 2001.86 1378.57 1985 1395.42 1968.15 1412.27 1943.86 1412.77 1924.16 1396.41Z" fill="#3E4041"/><path d="M1615.33 1396.66C1635.9 1376.09 1656.48 1355.39 1677.05 1334.82 1693.41 1355.14 1692.66 1378.32 1675.06 1395.54 1657.84 1412.4 1634.29 1412.77 1615.33 1396.66Z" fill="#3E3F41"/><path d="M1918.95 910.87C1919.94 900.088 1917.09 885.713 1923.04 879.517 1928.25 874.064 1942.99 877.41 1953.53 877.286 1987.48 877.162 1987.48 877.286 1987.48 910.87 1987.48 944.826 1987.48 944.826 1953.65 944.826 1919.94 944.95 1919.94 944.95 1918.95 910.87Z" fill="#5CADC6"/><path d="M1744.34 944.082 1744.34 877.906 1809.28 877.906 1809.28 944.082 1744.34 944.082ZM1986.74 1120.43 1920.81 1120.43 1920.81 1055.37 1986.74 1055.37 1986.74 1120.43ZM1656.23 944.082 1656.23 877.41C1676.55 877.41 1696.26 877.162 1715.84 877.658 1717.94 877.658 1721.66 881.871 1721.78 884.102 1722.28 903.806 1722.03 923.51 1722.03 943.958 1699.6 944.082 1678.16 944.082 1656.23 944.082ZM1831.83 877.906 1897.39 877.906 1897.39 944.454C1877.19 944.454 1856.86 944.578 1836.54 944.206 1834.93 944.206 1832.08 940.612 1832.08 938.753 1831.71 918.801 1831.83 898.725 1831.83 877.906ZM1919.94 967.132 1987.36 967.132C1987.36 987.456 1987.48 1007.41 1987.11 1027.36 1987.11 1029.22 1983.27 1032.57 1981.16 1032.69 1963.07 1033.06 1944.85 1033.18 1926.76 1032.69 1924.4 1032.57 1920.31 1028.85 1920.31 1026.74 1919.69 1007.16 1919.94 987.58 1919.94 967.132Z" fill="#5BADC5"/><path d="M1809.28 1032.32 1744.46 1032.32 1744.46 967.008 1809.28 967.008 1809.28 1032.32Z" fill="#58ABC5"/><path d="M1832.33 1032.32 1832.33 967.132 1897.26 967.132 1897.26 1032.32 1832.33 1032.32ZM1721.29 1032.44 1656.48 1032.44 1656.48 967.628 1721.29 967.628 1721.29 1032.44Z" fill="#59ACC4"/><path d="M1721.66 1055.62 1721.66 1120.18 1656.23 1120.18 1656.23 1055.62 1721.66 1055.62Z" fill="#58ABC5"/><path d="M1744.71 1055.12 1809.15 1055.12 1809.15 1120.3 1744.71 1120.3 1744.71 1055.12Z" fill="#57AAC3"/><path d="M1832.2 1120.3 1832.2 1055.62 1897.64 1055.62 1897.64 1120.3 1832.2 1120.3Z" fill="#58ABC4"/><path d="M2009.91 944.826 2009.91 878.03 2079.81 878.03C2075.22 893.273 2071.26 907.524 2066.67 921.651 2057.13 950.402 2064.19 944.33 2035.07 944.826 2026.77 944.95 2018.59 944.826 2009.91 944.826Z" fill="#5BADC5"/><path d="M1567.13 877.286C1588.44 877.286 1607.4 876.914 1626.24 877.658 1628.96 877.782 1633.55 883.111 1633.67 886.209 1634.42 902.691 1633.92 919.297 1634.05 935.903 1634.17 942.471 1631.57 945.321 1625 945.073 1617.56 944.826 1609.88 943.958 1602.57 945.197 1589.18 947.428 1584.85 940.86 1582.12 929.087 1578.16 912.233 1572.58 895.875 1567.13 877.286Z" fill="#5DAEC6"/><path d="M2009.54 1034.8 2009.54 967.504 2052.05 967.504C2045.6 988.2 2040.15 1009.02 2031.97 1028.85 2030.36 1032.81 2018.46 1032.69 2009.54 1034.8Z" fill="#5BADC5"/><path d="M1633.18 967.132 1633.18 1031.7C1613.85 1035.04 1613.72 1035.04 1608.52 1017.82 1603.56 1001.34 1598.85 984.73 1593.77 967.256 1607.28 967.132 1619.67 967.132 1633.18 967.132Z" fill="#5FAEC6"/><path d="M1619.55 1055.24 1633.3 1055.24 1633.3 1094.9C1632.81 1095.15 1632.19 1095.27 1631.69 1095.52 1627.73 1082.38 1623.76 1069.37 1619.55 1055.24Z" fill="#71B8CC"/><path d="M2009.79 1055.37 2024.54 1055.37C2020.07 1069.87 2015.74 1083.62 2011.52 1097.5 2011.03 1097.38 2010.41 1097.25 2009.91 1097.25 2009.79 1083.5 2009.79 1069.74 2009.79 1055.37Z" fill="#5CADC6"/><text fill="#FFFFFF" font-family="LiSu,LiSu_MSFontService,sans-serif" font-weight="700" font-size="110" transform="matrix(1 0 0 1 1558.66 1548)">启真智选</text></g></svg>